<svg width="242" height="150" viewBox="0 0 242 150" fill="none" xmlns="http://www.w3.org/2000/svg">
<g filter="url(#filter0_d_2_49)">
<path fill-rule="evenodd" clip-rule="evenodd" d="M75 119H78.4375C84.5208 119 89.8125 118 94.3125 116C98.8125 113.958 102.292 111 104.75 107.125C107.25 103.208 108.5 98.4167 108.5 92.75C108.5 88.8333 107.688 85.25 106.062 82C104.479 78.75 102.167 76.0833 99.125 74C97.2387 72.6822 95.0961 71.7009 92.6971 71.0561C93.5598 70.68 94.3899 70.2654 95.1875 69.8125C98.6042 67.8958 101.271 65.4375 103.188 62.4375C105.104 59.3958 106.062 56 106.062 52.25C106.062 48 105.396 44.3542 104.062 41.3125C102.729 38.2708 100.771 35.7708 98.1875 33.8125C95.6458 31.8125 92.5417 30.3542 88.875 29.4375C85.2083 28.4792 81.0417 28 76.375 28H46.5625V57H58.625V37.875H76.375C80.375 37.875 83.6667 38.375 86.25 39.375C88.875 40.3333 90.8125 41.875 92.0625 44C93.3542 46.0833 94 48.7917 94 52.125C94 55.1667 93.2708 57.7917 91.8125 60C90.3958 62.1667 88.3958 63.8333 85.8125 65C83.2292 66.1667 80.2083 66.75 76.75 66.75H61.9375H59V76.4375H61.8125H79C83.0833 76.4375 86.4167 77.1042 89 78.4375C91.5833 79.7708 93.4792 81.6667 94.6875 84.125C95.8958 86.5833 96.5 89.5 96.5 92.875C96.5 96.2083 95.7917 99.1042 94.375 101.562C92.9583 103.979 90.8958 105.854 88.1875 107.188C85.5208 108.521 82.2708 109.188 78.4375 109.188H75V119ZM160.188 28H162.812L197.625 119H185.25L176.583 95.1875H138.524L129.875 119H117.562L131.666 82H143.314L142.111 85.3125H172.988L157.534 42.8522L154 52.5812V46H145.389L152.25 28H154.875H160.188Z" fill="black"/>
</g>
<g filter="url(#filter1_d_2_49)">
<mask id="path-2-outside-1_2_49" maskUnits="userSpaceOnUse" x="0" y="27" width="162" height="93" fill="black">
<rect fill="white" y="27" width="162" height="93"/>
<path d="M44.25 36.0625L14.125 119H1.8125L36.5 28L44.4375 28L44.25 36.0625ZM69.5 119L39.3125 36.0625L39.125 28L47.0625 28L81.875 119H69.5ZM67.9375 85.3125V95.1875L16.8125 95.1875V85.3125L67.9375 85.3125ZM94.0625 28L124.188 28C131.021 28 136.792 29.0417 141.5 31.125C146.25 33.2083 149.854 36.2917 152.312 40.375C154.812 44.4167 156.062 49.3958 156.062 55.3125C156.062 59.4792 155.208 63.2917 153.5 66.75C151.833 70.1667 149.417 73.0833 146.25 75.5C143.125 77.875 139.375 79.6458 135 80.8125L131.625 82.125H103.312L103.187 72.3125H124.562C128.896 72.3125 132.5 71.5625 135.375 70.0625C138.25 68.5208 140.417 66.4583 141.875 63.875C143.333 61.2917 144.062 58.4375 144.062 55.3125C144.062 51.8125 143.375 48.75 142 46.125C140.625 43.5 138.458 41.4792 135.5 40.0625C132.583 38.6042 128.812 37.875 124.188 37.875H106.125L106.125 119H94.0625L94.0625 28ZM147.25 119L125.125 77.75L137.688 77.6875L160.125 118.25V119H147.25Z"/>
</mask>
<path d="M44.25 36.0625L14.125 119H1.8125L36.5 28L44.4375 28L44.25 36.0625ZM69.5 119L39.3125 36.0625L39.125 28L47.0625 28L81.875 119H69.5ZM67.9375 85.3125V95.1875L16.8125 95.1875V85.3125L67.9375 85.3125ZM94.0625 28L124.188 28C131.021 28 136.792 29.0417 141.5 31.125C146.25 33.2083 149.854 36.2917 152.312 40.375C154.812 44.4167 156.062 49.3958 156.062 55.3125C156.062 59.4792 155.208 63.2917 153.5 66.75C151.833 70.1667 149.417 73.0833 146.25 75.5C143.125 77.875 139.375 79.6458 135 80.8125L131.625 82.125H103.312L103.187 72.3125H124.562C128.896 72.3125 132.5 71.5625 135.375 70.0625C138.25 68.5208 140.417 66.4583 141.875 63.875C143.333 61.2917 144.062 58.4375 144.062 55.3125C144.062 51.8125 143.375 48.75 142 46.125C140.625 43.5 138.458 41.4792 135.5 40.0625C132.583 38.6042 128.812 37.875 124.188 37.875H106.125L106.125 119H94.0625L94.0625 28ZM147.25 119L125.125 77.75L137.688 77.6875L160.125 118.25V119H147.25Z" fill="white"/>
<path d="M44.25 36.0625L45.1899 36.4039L45.2459 36.2497L45.2497 36.0858L44.25 36.0625ZM14.125 119V120H14.8257L15.0649 119.341L14.125 119ZM1.8125 119L0.878083 118.644L0.361132 120H1.8125V119ZM36.5 28V27H35.811L35.5656 27.6438L36.5 28ZM44.4375 28L45.4372 28.0232L45.461 27H44.4375V28ZM69.5 119L68.5603 119.342L68.7998 120H69.5V119ZM39.3125 36.0625L38.3128 36.0858L38.3166 36.2501L38.3728 36.4045L39.3125 36.0625ZM39.125 28V27H38.1015L38.1253 28.0232L39.125 28ZM47.0625 28L47.9965 27.6427L47.7506 27H47.0625V28ZM81.875 119V120H83.3282L82.809 118.643L81.875 119ZM67.9375 85.3125H68.9375V84.3125H67.9375V85.3125ZM67.9375 95.1875V96.1875H68.9375V95.1875H67.9375ZM16.8125 95.1875H15.8125V96.1875H16.8125V95.1875ZM16.8125 85.3125V84.3125H15.8125V85.3125H16.8125ZM43.3101 35.7211L13.1851 118.659L15.0649 119.341L45.1899 36.4039L43.3101 35.7211ZM14.125 118H1.8125L1.8125 120H14.125V118ZM2.74692 119.356L37.4344 28.3562L35.5656 27.6438L0.878083 118.644L2.74692 119.356ZM36.5 29L44.4375 29V27L36.5 27V29ZM43.4378 27.9768L43.2503 36.0392L45.2497 36.0858L45.4372 28.0232L43.4378 27.9768ZM70.4397 118.658L40.2522 35.7205L38.3728 36.4045L68.5603 119.342L70.4397 118.658ZM40.3122 36.0392L40.1247 27.9768L38.1253 28.0232L38.3128 36.0858L40.3122 36.0392ZM39.125 29L47.0625 29V27L39.125 27V29ZM46.1285 28.3573L80.941 119.357L82.809 118.643L47.9965 27.6427L46.1285 28.3573ZM81.875 118H69.5V120H81.875V118ZM66.9375 85.3125V95.1875H68.9375V85.3125H66.9375ZM67.9375 94.1875L16.8125 94.1875V96.1875L67.9375 96.1875V94.1875ZM17.8125 95.1875V85.3125H15.8125L15.8125 95.1875H17.8125ZM16.8125 86.3125L67.9375 86.3125V84.3125L16.8125 84.3125V86.3125ZM94.0625 28V27H93.0625V28H94.0625ZM141.5 31.125L141.095 32.0395L141.098 32.0408L141.5 31.125ZM152.312 40.375L151.456 40.8908L151.462 40.9011L152.312 40.375ZM153.5 66.75L152.603 66.3071L152.601 66.3116L153.5 66.75ZM146.25 75.5L146.855 76.2962L146.857 76.295L146.25 75.5ZM135 80.8125L134.742 79.8463L134.689 79.8605L134.638 79.8805L135 80.8125ZM131.625 82.125V83.125H131.813L131.987 83.057L131.625 82.125ZM103.312 82.125L102.313 82.1377L102.325 83.125H103.312V82.125ZM103.187 72.3125V71.3125H102.175L102.188 72.3252L103.187 72.3125ZM135.375 70.0625L135.838 70.9491L135.848 70.9438L135.375 70.0625ZM135.5 40.0625L135.053 40.9569L135.06 40.9607L135.068 40.9644L135.5 40.0625ZM106.125 37.875V36.875H105.125V37.875H106.125ZM106.125 119V120H107.125V119H106.125ZM94.0625 119H93.0625V120H94.0625V119ZM147.25 119L146.369 119.473L146.652 120H147.25V119ZM125.125 77.75L125.12 76.75L123.458 76.7583L124.244 78.2227L125.125 77.75ZM137.688 77.6875L138.563 77.2035L138.276 76.6846L137.683 76.6875L137.688 77.6875ZM160.125 118.25H161.125V117.992L161 117.766L160.125 118.25ZM160.125 119V120H161.125V119H160.125ZM94.0625 29L124.188 29V27L94.0625 27V29ZM124.188 29C130.925 29 136.549 30.0278 141.095 32.0395L141.905 30.2105C137.034 28.0556 131.117 27 124.188 27V29ZM141.098 32.0408C145.677 34.0488 149.114 37.0004 151.456 40.8908L153.169 39.8592C150.595 35.5829 146.823 32.3679 141.902 30.2092L141.098 32.0408ZM151.462 40.9011C153.843 44.7501 155.062 49.5363 155.062 55.3125H157.062C157.062 49.2553 155.782 44.0832 153.163 39.8489L151.462 40.9011ZM155.062 55.3125C155.062 59.3381 154.238 62.9973 152.603 66.3071L154.397 67.1929C156.178 63.586 157.062 59.6202 157.062 55.3125H155.062ZM152.601 66.3116C151.006 69.5815 148.692 72.3782 145.643 74.705L146.857 76.295C150.141 73.7885 152.661 70.7518 154.399 67.1884L152.601 66.3116ZM145.645 74.7038C142.638 76.9889 139.011 78.708 134.742 79.8463L135.258 81.7787C139.739 80.5836 143.612 78.7611 146.855 76.2962L145.645 74.7038ZM134.638 79.8805L131.263 81.193L131.987 83.057L135.362 81.7445L134.638 79.8805ZM131.625 81.125H103.312V83.125H131.625V81.125ZM104.312 82.1123L104.187 72.2998L102.188 72.3252L102.313 82.1377L104.312 82.1123ZM103.187 73.3125H124.562V71.3125H103.187V73.3125ZM124.562 73.3125C129.005 73.3125 132.78 72.5444 135.838 70.9491L134.912 69.1759C132.22 70.5806 128.787 71.3125 124.562 71.3125V73.3125ZM135.848 70.9438C138.872 69.3218 141.185 67.1312 142.746 64.3666L141.004 63.3834C139.648 65.7855 137.628 67.7198 134.902 69.1812L135.848 70.9438ZM142.746 64.3666C144.293 61.6252 145.062 58.6002 145.062 55.3125L143.062 55.3125C143.062 58.2748 142.373 60.9582 141.004 63.3834L142.746 64.3666ZM145.062 55.3125C145.062 51.6801 144.348 48.453 142.886 45.661L141.114 46.589C142.402 49.047 143.062 51.9449 143.062 55.3125L145.062 55.3125ZM142.886 45.661C141.4 42.8244 139.063 40.6599 135.932 39.1606L135.068 40.9644C137.854 42.2984 139.85 44.1756 141.114 46.589L142.886 45.661ZM135.947 39.1681C132.846 37.6175 128.907 36.875 124.188 36.875V38.875C128.718 38.875 132.321 39.5909 135.053 40.9569L135.947 39.1681ZM124.188 36.875H106.125V38.875H124.188V36.875ZM105.125 37.875L105.125 119H107.125L107.125 37.875H105.125ZM106.125 118H94.0625V120H106.125V118ZM95.0625 119L95.0625 28H93.0625L93.0625 119H95.0625ZM148.131 118.527L126.006 77.2773L124.244 78.2227L146.369 119.473L148.131 118.527ZM125.13 78.75L137.692 78.6875L137.683 76.6875L125.12 76.75L125.13 78.75ZM136.812 78.1715L159.25 118.734L161 117.766L138.563 77.2035L136.812 78.1715ZM159.125 118.25V119H161.125V118.25H159.125ZM160.125 118H147.25V120H160.125V118Z" fill="black" mask="url(#path-2-outside-1_2_49)"/>
</g>
<path fill-rule="evenodd" clip-rule="evenodd" d="M136.438 28H139.062L173.875 119H161.5L152.833 95.1875H114.774L106.125 119H93.8125L128.5 28H131.125H136.438ZM118.361 85.3125H149.238L133.784 42.8522L118.361 85.3125ZM241.25 119V109.188H198.125V51H186.062V119H195.75H198.125H241.25ZM186.062 39H198.125V28H186.062V39Z" fill="black"/>
<rect x="184.222" y="34" width="11" height="11" transform="rotate(-45 184.222 34)" fill="white" stroke="black"/>
<rect x="188.707" y="34" width="4.65685" height="4.65685" rx="2.32843" transform="rotate(-45 188.707 34)" fill="white" stroke="black"/>
<defs>
<filter id="filter0_d_2_49" x="46.5625" y="28" width="154.062" height="91" filterUnits="userSpaceOnUse" color-interpolation-filters="sRGB">
<feFlood flood-opacity="0" result="BackgroundImageFix"/>
<feColorMatrix in="SourceAlpha" type="matrix" values="0 0 0 0 0 0 0 0 0 0 0 0 0 0 0 0 0 0 127 0" result="hardAlpha"/>
<feOffset dx="3"/>
<feComposite in2="hardAlpha" operator="out"/>
<feColorMatrix type="matrix" values="0 0 0 0 1 0 0 0 0 1 0 0 0 0 1 0 0 0 1 0"/>
<feBlend mode="normal" in2="BackgroundImageFix" result="effect1_dropShadow_2_49"/>
<feBlend mode="normal" in="SourceGraphic" in2="effect1_dropShadow_2_49" result="shape"/>
</filter>
<filter id="filter1_d_2_49" x="1.8125" y="28" width="161.312" height="91" filterUnits="userSpaceOnUse" color-interpolation-filters="sRGB">
<feFlood flood-opacity="0" result="BackgroundImageFix"/>
<feColorMatrix in="SourceAlpha" type="matrix" values="0 0 0 0 0 0 0 0 0 0 0 0 0 0 0 0 0 0 127 0" result="hardAlpha"/>
<feOffset dx="3"/>
<feComposite in2="hardAlpha" operator="out"/>
<feColorMatrix type="matrix" values="0 0 0 0 1 0 0 0 0 1 0 0 0 0 1 0 0 0 1 0"/>
<feBlend mode="normal" in2="BackgroundImageFix" result="effect1_dropShadow_2_49"/>
<feBlend mode="normal" in="SourceGraphic" in2="effect1_dropShadow_2_49" result="shape"/>
</filter>
</defs>
</svg>
