<?xml version="1.0" encoding="UTF-8"?>
<svg version="1.1" viewBox="0 0 2048 1150" width="666" height="374" xmlns="http://www.w3.org/2000/svg">
<path transform="translate(581,789)" d="m0 0h14v4l-23 2h-12l-17 4-43 5-66 5-13 2-3 1-1 2 10 1h10l16-3h34l20-1 9 2 5-3 18 2h19l35 1 19 3 16 4h11l34-2 26-4 7-1 25-1v3l-13 4-40 8-8 3-1 3 5 1 39 3 4 2-3 7-5 4-1 3h18l12-2h10l11 2 15 1h14l23 4 33 2 29 3 38 6h27l7-3h9l8-2h10l22-3 4-1 17-1 8-3 8-1h54l15 1h67l15 2 14 1 40 1 80 1 17 1 2 4-2 1-37-1-4 1-29 1h-27l-44-1h-39v3l11 2h29l18 2 3 1h26l8 3h6l4-1 25 4 22 2h15l6-1 18 3 1-4 12 1h20l5-3h8l15-2 5-4h9l7-3h12l36-8 19-5 6-1h14l22-3h29l12-2 2-1 25-1h13l-3-3-3-1v-2h5l-2-6 4-1 5 2h8l7-2 27 3 12 2 26 1h26l9-1 10-6 3-6 2-1h9l12 5h5l4-2 11 4 17 3 9-1 4 1 15 1 5-3 6 1h17l4 1h19l11-1 13 1 7-1h13l10 2 7 2 23 1 14 3 8 2 20 1 28 4 5 1v297h-2048v-235h2l-2-3v-32l11-6 40-3 14-4 15-2 18-4 9-4 9-7 1-7 8-3 21 2 1-4 27 1 14-3 11-1 12-5 13-2 2-2 25-3 11-4 17-3 7-3 14-2 19-1 10-3 8-1h21l17-2 9-2 32-2 50-2 21-2 30-1z" fill="#5A72BA"/>
</svg>
